<svg xmlns="http://www.w3.org/2000/svg" viewBox="0 0 1152 648" style=""><defs><style>.cls-1{fill:none;stroke:#efb127;stroke-miterlimit:10;stroke-width:4px;}</style></defs><title>Skyline</title><g id="Let_chin_lip" data-name="Let chin/lip"><path class="cls-1 XfobWMav_0" d="M-7.16,597.55H26.39V516.3H54v36.52H80.05V489.47H136.7V597.55h18.64V532.7h28.32V469.34h35.78V526h21.61v12.67h26.09v20.13h50.69V490.21H326V476.79l12.3-12.29,9.69,9.69v16.58h11.73v68h9.47V546.93h7.11V531h10.83V494.49h50.41v34.84h39.58V515.12h22.67v11.17h8.46V438.66h6.09l13.19-29.77,16.24,28.76h29.09V399.42H582V358.14H622v43h8.79v28.42h7.11l13.19-43,14.21,41.61H677.1V559.45h8.8v-60.1H695v-9.26h5.41v-65H737v63.94h6.43v10.28h8.45v50.28h15.91V488.06h24.69v32.82H807.7V425.13h25.71v88h13.2v-54.8h26v58.53h21.65s-.68-43.31,0-43.31h56.16v52.78H965V455.58h35.53V508.7h9.13v18.94h10.15v32.82h8.46V510.39H1032V491.44h3.38v-13.6h4.06V462h4.4v15.83h5.42v13.6h4.06v18.95h3.72v49.73h14.88V493.81h32.48V599h51.09"></path></g><style data-made-with="vivus-instant">.XfobWMav_0{stroke-dasharray:3728 3730;stroke-dashoffset:3729;animation:XfobWMav_draw_0 9200ms linear 0ms infinite,XfobWMav_fade 9200ms linear 0ms infinite;}@keyframes XfobWMav_draw{100%{stroke-dashoffset:0;}}@keyframes XfobWMav_fade{0%{stroke-opacity:1;}95.65217391304348%{stroke-opacity:1;}100%{stroke-opacity:0;}}@keyframes XfobWMav_draw_0{8.695652173913043%{stroke-dashoffset: 3729}44.927536231884055%{ stroke-dashoffset: 0;}100%{ stroke-dashoffset: 0;}}</style></svg>